<?xml version="1.0" encoding="UTF-8"?>
<!-- Created with Inkscape (http://www.inkscape.org/) -->
<svg width="413.06" height="114.22" version="1.1" viewBox="0 0 109.29 30.222" xmlns="http://www.w3.org/2000/svg" xmlns:cc="http://creativecommons.org/ns#" xmlns:dc="http://purl.org/dc/elements/1.1/" xmlns:rdf="http://www.w3.org/1999/02/22-rdf-syntax-ns#">
 <metadata>
  <rdf:RDF>
   <cc:Work rdf:about="">
    <dc:format>image/svg+xml</dc:format>
    <dc:type rdf:resource="http://purl.org/dc/dcmitype/StillImage"/>
    <dc:title/>
   </cc:Work>
  </rdf:RDF>
 </metadata>
 <g transform="translate(-11.502 -248.82)">
  <g transform="matrix(.43319 0 0 .43319 -18.23 226.11)" style="font-feature-settings:normal;font-variant-caps:normal;font-variant-ligatures:normal;font-variant-numeric:normal" aria-label="LOGO">
   <path d="m68.634 120.94h34.21v-9.6095h-23.543v-57.657h-10.667z" style="font-feature-settings:normal;font-variant-caps:normal;font-variant-ligatures:normal;font-variant-numeric:normal"/>
   <path d="m104.49 87.307c0 19.892 14.51 34.882 34.594 34.882 20.18 0 34.69-15.087 34.69-34.882 0-19.603-14.51-34.882-34.594-34.882s-34.69 15.183-34.69 34.882zm11.147 0c0-14.222 9.9939-24.889 23.543-24.889 13.453 0 23.543 10.667 23.543 24.889 0 14.414-10.09 24.889-23.543 24.889-13.549 0-23.543-10.474-23.543-24.889z" style="font-feature-settings:normal;font-variant-caps:normal;font-variant-ligatures:normal;font-variant-numeric:normal"/>
   <path d="m214.81 52.425c-20.084 0-34.402 15.375-34.402 34.882 0 20.853 15.087 34.882 34.21 34.882 12.781 0 21.333-4.036 28.54-10.763v-25.657h-23.928v9.129h13.838v11.339c-1.7297 1.8258-7.5915 6.054-17.874 6.054-13.549 0-23.639-10.09-23.639-25.081 0-14.126 9.3212-24.889 23.639-24.889 10.09 0 15.952 4.9969 18.546 7.5915l6.7266-7.0149c-3.4594-3.8438-11.435-10.474-25.657-10.474z" style="font-feature-settings:normal;font-variant-caps:normal;font-variant-ligatures:normal;font-variant-numeric:normal"/>
   <path d="m251.63 87.307c0 19.892 14.51 34.882 34.594 34.882 20.18 0 34.69-15.087 34.69-34.882 0-19.603-14.51-34.882-34.594-34.882-20.084 0-34.69 15.183-34.69 34.882zm11.147 0c0-14.222 9.9939-24.889 23.543-24.889 13.453 0 23.543 10.667 23.543 24.889 0 14.414-10.09 24.889-23.543 24.889-13.549 0-23.543-10.474-23.543-24.889z" style="font-feature-settings:normal;font-variant-caps:normal;font-variant-ligatures:normal;font-variant-numeric:normal"/>
  </g>
  <text x="44.901283" y="284.17108" fill="#000000" font-family="sans-serif" font-size="10.583px" letter-spacing="0px" stroke-width=".26458" word-spacing="0px" style="line-height:1.25" xml:space="preserve"><tspan x="44.901283" y="293.82657" stroke-width=".26458"/></text>
 </g>
</svg>
